<svg width="273" height="52" viewBox="0 0 273 52" fill="none" xmlns="http://www.w3.org/2000/svg">
<path d="M104.759 13.6385L113.015 32.1002C113.472 33.0544 114.26 33.6352 115.712 33.6352V34.6724H103.805V33.6352C105.589 33.6352 106.336 33.0129 106.336 31.8927C106.336 31.3534 106.17 30.6896 105.838 29.9428L104.303 26.5409C103.805 27.2047 103.349 28.1174 103.058 29.3205C101.772 28.1589 99.781 27.1217 97.4163 27.1217C95.9642 27.1217 94.5537 27.5366 93.1431 28.3249L92.3963 30.1918C91.5251 32.515 93.3505 33.6352 95.8398 33.6352V34.6724H86.4637V33.6352C88.2476 33.6352 89.3263 32.7225 89.8656 31.4364L97.6652 11.6056C97.0429 10.4025 96.2961 9.69721 94.8441 9.69721V8.66003H106.709V9.69721C103.93 9.86315 103.847 11.5641 104.759 13.6385ZM103.307 24.3006L98.7853 14.0533L93.8484 26.6239C96.2131 24.6325 98.5779 23.8858 100.694 23.8858C101.648 23.8858 102.519 24.0102 103.307 24.3006ZM125.65 7.66435C127.849 7.66435 132.537 8.95044 132.537 12.062C132.537 13.4725 131.375 14.5927 129.964 14.5927C128.554 14.5927 127.392 13.431 127.392 12.0205C127.392 11.6886 127.475 11.3567 127.6 11.0248C128.015 9.4068 126.977 8.32814 125.857 8.32814C124.82 8.32814 123.741 9.24085 123.741 11.5226C123.741 12.4768 123.741 14.3437 123.741 17.1649H126.687V18.6169H123.741C123.741 22.8071 123.741 28.0759 123.741 31.2704C123.783 32.681 124.073 33.6352 125.65 33.6352V34.6724H116.73V33.6352C118.307 33.6352 118.555 32.6395 118.597 31.1875C118.597 27.91 118.597 22.5582 118.597 18.6169H117.269V17.1649H118.597C118.597 15.4224 118.597 14.4267 118.597 13.6385C118.597 9.4068 122.165 7.66435 125.65 7.66435ZM140.512 31.1045V31.146C140.554 32.6395 140.803 33.6352 142.421 33.6352V34.6724H133.501V33.6352C135.078 33.6352 135.368 32.681 135.41 31.2704V12.062C135.368 10.6514 135.078 9.69721 133.501 9.69721V8.66003H140.512V31.1045ZM152.513 17.1234C157.533 17.1234 161.599 21.0646 161.599 25.9186C161.599 30.7726 157.533 34.7139 152.513 34.7139C147.493 34.7139 143.427 30.7726 143.427 25.9186C143.427 21.0646 147.493 17.1234 152.513 17.1234ZM152.513 34.0086C154.421 34.0086 155.956 30.3992 155.956 25.9186C155.956 21.438 154.421 17.8287 152.513 17.8287C150.605 17.8287 149.069 21.438 149.069 25.9186C149.069 30.3992 150.605 34.0086 152.513 34.0086ZM180.482 31.2704C180.523 32.6395 180.772 33.6352 182.349 33.6352V34.6724H175.338C175.338 34.6724 175.338 33.8011 175.338 32.6395C174.01 33.9256 171.521 34.7139 169.239 34.7139C166.459 34.7139 163.887 33.5107 163.887 30.5237C163.887 24.3421 173.885 25.8771 175.379 22.7656C175.379 22.4752 175.379 22.2263 175.379 22.0188C175.379 19.0318 173.678 17.8287 172.143 17.8287C170.442 17.8287 169.488 19.1977 170.027 20.8987C170.11 21.1476 170.152 21.3965 170.152 21.6869C170.152 23.0975 168.99 24.2591 167.579 24.2591C166.169 24.2591 165.007 23.0975 165.007 21.6869C165.007 18.368 169.695 17.2478 172.558 17.2478C176.499 17.2478 180.482 19.0318 180.482 23.3049C180.482 25.3378 180.482 28.7812 180.482 31.2704ZM175.296 31.0215C175.296 28.9472 175.296 26.209 175.296 24.1347C173.554 26.2505 168.7 26.0846 168.7 30.4407C168.7 32.2246 170.11 32.9714 171.645 32.9714C173.097 32.9714 174.715 32.2661 175.296 31.0215ZM195.156 32.3491L195.861 33.1373C194.658 34.2575 193.082 34.7968 191.547 34.7968C188.435 34.7968 185.324 32.6395 185.324 28.7812C185.324 26.7484 185.324 23.139 185.324 20.6083C185.282 19.1977 184.992 18.202 183.415 18.202V17.1649C185.863 17.1649 189.306 13.9289 189.306 11.9375H190.426V17.1649H195.073V18.6169H190.426C190.426 21.0646 190.426 26.2505 190.426 28.6982C190.426 31.6853 191.713 33.0544 193.206 33.0544C193.828 33.0544 194.534 32.8469 195.156 32.3491ZM207.694 17.1234C212.714 17.1234 216.489 20.4423 216.489 25.9601C216.489 31.4779 212.465 34.7553 207.445 34.7553C206.159 34.7553 204.873 34.299 203.877 33.3033V34.6724H196.866V33.6352C198.484 33.6352 198.733 32.6395 198.774 31.146V12.1864C198.733 10.6929 198.484 9.69721 196.866 9.69721V8.66003H203.877V18.5754C204.666 17.8701 206.035 17.1234 207.694 17.1234ZM206.989 33.9256C209.105 33.9256 210.806 30.9385 210.806 25.9186C210.806 21.438 209.354 17.8287 207.072 17.8287C204.873 17.8287 203.877 20.3594 203.877 22.7241V29.1131C203.877 33.1373 205.62 33.9256 206.989 33.9256ZM227.789 17.1234C232.809 17.1234 236.875 21.0646 236.875 25.9186C236.875 30.7726 232.809 34.7139 227.789 34.7139C222.769 34.7139 218.703 30.7726 218.703 25.9186C218.703 21.0646 222.769 17.1234 227.789 17.1234ZM227.789 34.0086C229.697 34.0086 231.232 30.3992 231.232 25.9186C231.232 21.438 229.697 17.8287 227.789 17.8287C225.881 17.8287 224.346 21.438 224.346 25.9186C224.346 30.3992 225.881 34.0086 227.789 34.0086ZM255.758 31.2704C255.8 32.6395 256.049 33.6352 257.625 33.6352V34.6724H250.614C250.614 34.6724 250.614 33.8011 250.614 32.6395C249.286 33.9256 246.797 34.7139 244.515 34.7139C241.736 34.7139 239.163 33.5107 239.163 30.5237C239.163 24.3421 249.162 25.8771 250.655 22.7656C250.655 22.4752 250.655 22.2263 250.655 22.0188C250.655 19.0318 248.954 17.8287 247.419 17.8287C245.718 17.8287 244.764 19.1977 245.303 20.8987C245.386 21.1476 245.428 21.3965 245.428 21.6869C245.428 23.0975 244.266 24.2591 242.856 24.2591C241.445 24.2591 240.283 23.0975 240.283 21.6869C240.283 18.368 244.971 17.2478 247.834 17.2478C251.775 17.2478 255.758 19.0318 255.758 23.3049C255.758 25.3378 255.758 28.7812 255.758 31.2704ZM250.572 31.0215C250.572 28.9472 250.572 26.209 250.572 24.1347C248.83 26.2505 243.976 26.0846 243.976 30.4407C243.976 32.2246 245.386 32.9714 246.921 32.9714C248.373 32.9714 249.991 32.2661 250.572 31.0215ZM270.432 32.3491L271.137 33.1373C269.934 34.2575 268.358 34.7968 266.823 34.7968C263.711 34.7968 260.6 32.6395 260.6 28.7812C260.6 26.7484 260.6 23.139 260.6 20.6083C260.558 19.1977 260.268 18.202 258.691 18.202V17.1649C261.139 17.1649 264.583 13.9289 264.583 11.9375H265.703V17.1649H270.349V18.6169H265.703C265.703 21.0646 265.703 26.2505 265.703 28.6982C265.703 31.6853 266.989 33.0544 268.482 33.0544C269.105 33.0544 269.81 32.8469 270.432 32.3491Z" fill="#0A3A6B"/>
<path d="M87.4149 49.5544C87.2652 49.5544 87.1394 49.5034 87.0374 49.4014C86.9354 49.2994 86.8844 49.1736 86.8844 49.0239C86.8844 48.8539 86.9422 48.7145 87.0578 48.6057C87.1734 48.4969 87.306 48.4425 87.4557 48.4425C87.6053 48.4425 87.7277 48.4935 87.8229 48.5955C87.9249 48.6907 87.9759 48.8165 87.9759 48.9729C87.9759 49.0886 87.9487 49.1906 87.8943 49.279C87.8467 49.3606 87.7787 49.4286 87.6903 49.483C87.6019 49.5306 87.5101 49.5544 87.4149 49.5544ZM89.5767 49.5544C89.4271 49.5544 89.3013 49.5034 89.1993 49.4014C89.0972 49.2994 89.0462 49.1736 89.0462 49.0239C89.0462 48.8539 89.104 48.7145 89.2197 48.6057C89.3353 48.4969 89.4679 48.4425 89.6175 48.4425C89.7671 48.4425 89.8896 48.4935 89.9848 48.5955C90.0868 48.6907 90.1378 48.8165 90.1378 48.9729C90.1378 49.0886 90.1106 49.1906 90.0562 49.279C90.0086 49.3606 89.9406 49.4286 89.8521 49.483C89.7637 49.5306 89.6719 49.5544 89.5767 49.5544ZM91.7386 49.5544C91.5889 49.5544 91.4631 49.5034 91.3611 49.4014C91.2591 49.2994 91.2081 49.1736 91.2081 49.0239C91.2081 48.8539 91.2659 48.7145 91.3815 48.6057C91.4971 48.4969 91.6297 48.4425 91.7794 48.4425C91.929 48.4425 92.0514 48.4935 92.1466 48.5955C92.2486 48.6907 92.2996 48.8165 92.2996 48.9729C92.2996 49.0886 92.2724 49.1906 92.218 49.279C92.1704 49.3606 92.1024 49.4286 92.014 49.483C91.9256 49.5306 91.8338 49.5544 91.7386 49.5544ZM95.3713 49.5544C95.0653 49.5544 94.8034 49.4898 94.5858 49.3606C94.3682 49.2246 94.2152 49.0341 94.1267 48.7893C94.0451 48.5445 94.0383 48.252 94.1063 47.912L95.0857 42.9642H95.81L94.8306 47.8814C94.7626 48.2146 94.7864 48.4731 94.9021 48.6567C95.0245 48.8403 95.2455 48.9321 95.5652 48.9321C95.7148 48.9321 95.861 48.9117 96.0038 48.8709C96.1466 48.8233 96.2759 48.7519 96.3915 48.6567L96.5649 49.2076C96.3949 49.3368 96.2044 49.4286 95.9936 49.483C95.7828 49.5306 95.5754 49.5544 95.3713 49.5544ZM93.7799 44.7495L93.8921 44.1476H97.2076L97.0852 44.7495H93.7799ZM100.071 49.5544C99.561 49.5544 99.1156 49.4626 98.7347 49.279C98.3607 49.0886 98.0716 48.8233 97.8676 48.4833C97.6704 48.1432 97.5717 47.7386 97.5717 47.2693C97.5717 46.6572 97.701 46.1131 97.9594 45.637C98.2178 45.161 98.5715 44.7869 99.0204 44.5149C99.4692 44.236 99.9759 44.0966 100.54 44.0966C101.016 44.0966 101.428 44.1884 101.775 44.3721C102.122 44.5489 102.39 44.8073 102.581 45.1474C102.778 45.4874 102.877 45.8955 102.877 46.3716C102.877 46.4804 102.87 46.5926 102.856 46.7082C102.843 46.817 102.826 46.9224 102.805 47.0245H98.1022L98.194 46.4838H102.468L102.173 46.6878C102.241 46.2593 102.21 45.8989 102.081 45.6064C101.952 45.314 101.751 45.093 101.479 44.9433C101.214 44.7869 100.894 44.7087 100.52 44.7087C100.085 44.7087 99.6971 44.8175 99.357 45.0352C99.017 45.246 98.7517 45.5418 98.5613 45.9227C98.3709 46.2967 98.2756 46.7354 98.2756 47.2387C98.2756 47.776 98.4287 48.1908 98.7347 48.4833C99.0476 48.7689 99.5134 48.9117 100.132 48.9117C100.493 48.9117 100.826 48.8539 101.132 48.7383C101.438 48.6159 101.69 48.4493 101.887 48.2384L102.213 48.7587C101.962 49.0103 101.646 49.2076 101.265 49.3504C100.891 49.4864 100.493 49.5544 100.071 49.5544ZM106.207 49.5544C105.697 49.5544 105.255 49.4626 104.881 49.279C104.514 49.0886 104.228 48.8233 104.024 48.4833C103.827 48.1432 103.729 47.742 103.729 47.2795C103.729 46.6674 103.861 46.1233 104.126 45.6472C104.392 45.1644 104.759 44.7869 105.228 44.5149C105.704 44.236 106.245 44.0966 106.85 44.0966C107.347 44.0966 107.772 44.1884 108.125 44.3721C108.486 44.5489 108.765 44.8141 108.962 45.1678L108.35 45.5248C108.2 45.2528 107.993 45.0522 107.728 44.9229C107.469 44.7937 107.156 44.7291 106.789 44.7291C106.34 44.7291 105.939 44.8379 105.585 45.0556C105.232 45.2732 104.953 45.5724 104.749 45.9533C104.551 46.3273 104.453 46.7592 104.453 47.2489C104.453 47.7726 104.606 48.1806 104.912 48.4731C105.225 48.7655 105.667 48.9117 106.238 48.9117C106.585 48.9117 106.905 48.8471 107.197 48.7179C107.496 48.5819 107.741 48.3881 107.932 48.1364L108.452 48.5343C108.221 48.8539 107.904 49.1056 107.503 49.2892C107.102 49.466 106.67 49.5544 106.207 49.5544ZM113.131 44.0966C113.614 44.0966 114.008 44.1918 114.314 44.3823C114.627 44.5659 114.841 44.8345 114.957 45.1882C115.079 45.5418 115.09 45.9635 114.988 46.4532L114.375 49.5034H113.651L114.263 46.443C114.372 45.9125 114.314 45.4976 114.09 45.1984C113.872 44.8991 113.485 44.7495 112.927 44.7495C112.356 44.7495 111.879 44.9059 111.499 45.2188C111.125 45.5316 110.873 46.0009 110.744 46.6266L110.172 49.5034H109.448L110.958 41.9339H111.682L110.927 45.6881L110.744 45.4228C111.002 44.9603 111.335 44.6237 111.743 44.4129C112.158 44.202 112.621 44.0966 113.131 44.0966ZM116.434 47.0551L116.556 46.4226H119.229L119.107 47.0551H116.434ZM122.785 49.5544C122.275 49.5544 121.83 49.4626 121.449 49.279C121.075 49.0886 120.786 48.8233 120.582 48.4833C120.385 48.1432 120.286 47.7386 120.286 47.2693C120.286 46.6572 120.415 46.1131 120.674 45.637C120.932 45.161 121.286 44.7869 121.735 44.5149C122.184 44.236 122.69 44.0966 123.255 44.0966C123.731 44.0966 124.142 44.1884 124.489 44.3721C124.836 44.5489 125.105 44.8073 125.295 45.1474C125.492 45.4874 125.591 45.8955 125.591 46.3716C125.591 46.4804 125.584 46.5926 125.57 46.7082C125.557 46.817 125.54 46.9224 125.519 47.0245H120.817L120.908 46.4838H125.183L124.887 46.6878C124.955 46.2593 124.924 45.8989 124.795 45.6064C124.666 45.314 124.465 45.093 124.193 44.9433C123.928 44.7869 123.608 44.7087 123.234 44.7087C122.799 44.7087 122.411 44.8175 122.071 45.0352C121.731 45.246 121.466 45.5418 121.276 45.9227C121.085 46.2967 120.99 46.7354 120.99 47.2387C120.99 47.776 121.143 48.1908 121.449 48.4833C121.762 48.7689 122.228 48.9117 122.847 48.9117C123.207 48.9117 123.54 48.8539 123.846 48.7383C124.152 48.6159 124.404 48.4493 124.601 48.2384L124.928 48.7587C124.676 49.0103 124.36 49.2076 123.979 49.3504C123.605 49.4864 123.207 49.5544 122.785 49.5544ZM130.177 44.0966C130.659 44.0966 131.054 44.1918 131.36 44.3823C131.673 44.5659 131.887 44.8345 132.003 45.1882C132.125 45.5418 132.135 45.9635 132.033 46.4532L131.421 49.5034H130.697L131.309 46.443C131.418 45.9125 131.36 45.4976 131.136 45.1984C130.918 44.8991 130.53 44.7495 129.973 44.7495C129.401 44.7495 128.925 44.9059 128.544 45.2188C128.17 45.5316 127.919 46.0009 127.789 46.6266L127.218 49.5034H126.494L127.555 44.1476H128.248L127.942 45.6881L127.789 45.4228C128.048 44.9603 128.381 44.6237 128.789 44.4129C129.204 44.202 129.666 44.0966 130.177 44.0966ZM135.673 49.5544C135.217 49.5544 134.813 49.4626 134.459 49.279C134.105 49.0954 133.83 48.8335 133.633 48.4935C133.435 48.1534 133.337 47.7488 133.337 47.2795C133.337 46.8238 133.412 46.4022 133.561 46.0145C133.711 45.6268 133.922 45.2902 134.194 45.0046C134.466 44.7121 134.785 44.4877 135.153 44.3313C135.527 44.1748 135.931 44.0966 136.367 44.0966C136.836 44.0966 137.234 44.1816 137.56 44.3517C137.887 44.5149 138.138 44.7563 138.315 45.076C138.492 45.3888 138.58 45.7697 138.58 46.2185C138.58 46.8646 138.461 47.4393 138.223 47.9426C137.985 48.4459 137.649 48.8403 137.213 49.126C136.778 49.4116 136.265 49.5544 135.673 49.5544ZM135.826 48.9117C136.275 48.9117 136.673 48.8063 137.02 48.5955C137.373 48.3779 137.649 48.0786 137.846 47.6978C138.05 47.3169 138.152 46.885 138.152 46.4022C138.152 45.8717 137.995 45.4602 137.683 45.1678C137.377 44.8753 136.945 44.7291 136.387 44.7291C135.945 44.7291 135.547 44.8379 135.193 45.0556C134.84 45.2732 134.561 45.5724 134.357 45.9533C134.16 46.3273 134.061 46.7592 134.061 47.2489C134.061 47.7726 134.214 48.1806 134.52 48.4731C134.833 48.7655 135.268 48.9117 135.826 48.9117ZM137.591 49.5034L137.897 47.963L138.203 46.8816L138.305 45.7595L138.631 44.1476H139.356L138.285 49.5034H137.591ZM140.302 49.5034L141.812 41.9339H142.536L141.781 45.6983L141.454 46.7592L141.332 47.7998L140.995 49.5034H140.302ZM143.281 49.5544C142.818 49.5544 142.42 49.4728 142.087 49.3096C141.761 49.1396 141.509 48.8981 141.332 48.5853C141.162 48.2656 141.074 47.8814 141.067 47.4325C141.067 46.9428 141.135 46.494 141.271 46.0859C141.407 45.6779 141.601 45.3276 141.852 45.0352C142.111 44.7359 142.417 44.5047 142.77 44.3415C143.131 44.1782 143.532 44.0966 143.974 44.0966C144.437 44.0966 144.841 44.1884 145.188 44.3721C145.542 44.5489 145.817 44.8073 146.015 45.1474C146.219 45.4874 146.321 45.8921 146.321 46.3614C146.321 46.8238 146.246 47.2489 146.096 47.6365C145.947 48.0242 145.732 48.3608 145.453 48.6465C145.181 48.9321 144.862 49.1566 144.495 49.3198C144.127 49.4762 143.723 49.5544 143.281 49.5544ZM143.27 48.9117C143.719 48.9117 144.117 48.8063 144.464 48.5955C144.811 48.3779 145.083 48.0786 145.28 47.6978C145.484 47.3169 145.586 46.885 145.586 46.4022C145.586 45.8717 145.433 45.4602 145.127 45.1678C144.821 44.8753 144.386 44.7291 143.821 44.7291C143.379 44.7291 142.981 44.8379 142.628 45.0556C142.281 45.2732 142.005 45.5724 141.801 45.9533C141.604 46.3273 141.506 46.7592 141.506 47.2489C141.506 47.7726 141.659 48.1806 141.965 48.4731C142.271 48.7655 142.706 48.9117 143.27 48.9117ZM147.216 49.5034L148.725 41.9339H149.45L147.94 49.5034H147.216ZM152.404 49.5544C151.894 49.5544 151.448 49.4626 151.067 49.279C150.693 49.0886 150.404 48.8233 150.2 48.4833C150.003 48.1432 149.904 47.7386 149.904 47.2693C149.904 46.6572 150.034 46.1131 150.292 45.637C150.55 45.161 150.904 44.7869 151.353 44.5149C151.802 44.236 152.308 44.0966 152.873 44.0966C153.349 44.0966 153.76 44.1884 154.107 44.3721C154.454 44.5489 154.723 44.8073 154.913 45.1474C155.11 45.4874 155.209 45.8955 155.209 46.3716C155.209 46.4804 155.202 46.5926 155.189 46.7082C155.175 46.817 155.158 46.9224 155.138 47.0245H150.435L150.527 46.4838H154.801L154.505 46.6878C154.573 46.2593 154.543 45.8989 154.413 45.6064C154.284 45.314 154.084 45.093 153.811 44.9433C153.546 44.7869 153.227 44.7087 152.853 44.7087C152.417 44.7087 152.03 44.8175 151.69 45.0352C151.35 45.246 151.084 45.5418 150.894 45.9227C150.703 46.2967 150.608 46.7354 150.608 47.2387C150.608 47.776 150.761 48.1908 151.067 48.4833C151.38 48.7689 151.846 48.9117 152.465 48.9117C152.825 48.9117 153.159 48.8539 153.465 48.7383C153.771 48.6159 154.022 48.4493 154.22 48.2384L154.546 48.7587C154.294 49.0103 153.978 49.2076 153.597 49.3504C153.223 49.4864 152.825 49.5544 152.404 49.5544ZM158.397 49.5544C157.942 49.5544 157.537 49.4626 157.183 49.279C156.83 49.0954 156.554 48.8335 156.357 48.4935C156.16 48.1534 156.061 47.7488 156.061 47.2795C156.061 46.8238 156.136 46.4022 156.286 46.0145C156.435 45.6268 156.646 45.2902 156.918 45.0046C157.19 44.7121 157.51 44.4877 157.877 44.3313C158.251 44.1748 158.656 44.0966 159.091 44.0966C159.56 44.0966 159.958 44.1816 160.284 44.3517C160.611 44.5149 160.863 44.7563 161.039 45.076C161.216 45.3888 161.305 45.7697 161.305 46.2185C161.305 46.7014 161.237 47.1469 161.101 47.5549C160.971 47.963 160.778 48.3166 160.519 48.6159C160.261 48.9151 159.951 49.1464 159.591 49.3096C159.237 49.4728 158.839 49.5544 158.397 49.5544ZM158.55 48.9117C158.999 48.9117 159.397 48.8063 159.744 48.5955C160.097 48.3779 160.373 48.0786 160.57 47.6978C160.774 47.3169 160.876 46.885 160.876 46.4022C160.876 45.8717 160.72 45.4602 160.407 45.1678C160.101 44.8753 159.669 44.7291 159.111 44.7291C158.669 44.7291 158.271 44.8379 157.918 45.0556C157.564 45.2732 157.285 45.5724 157.081 45.9533C156.884 46.3273 156.785 46.7592 156.785 47.2489C156.785 47.7726 156.938 48.1806 157.244 48.4731C157.557 48.7655 157.993 48.9117 158.55 48.9117ZM160.315 49.5034L160.621 47.963L160.927 46.8816L161.029 45.7595L161.794 41.9339H162.519L161.009 49.5034H160.315ZM173.327 44.0966C173.81 44.0966 174.201 44.1918 174.5 44.3823C174.806 44.5659 175.017 44.8345 175.132 45.1882C175.248 45.5418 175.255 45.9635 175.153 46.4532L174.541 49.5034H173.816L174.428 46.443C174.537 45.9125 174.486 45.4976 174.275 45.1984C174.071 44.8991 173.697 44.7495 173.153 44.7495C172.616 44.7495 172.164 44.8991 171.796 45.1984C171.436 45.4976 171.195 45.9465 171.072 46.545L170.48 49.5034H169.756L170.368 46.443C170.477 45.9125 170.426 45.4976 170.215 45.1984C170.004 44.8991 169.63 44.7495 169.093 44.7495C168.542 44.7495 168.086 44.9059 167.726 45.2188C167.366 45.5316 167.121 46.0009 166.992 46.6266L166.42 49.5034H165.696L166.757 44.1476H167.451L167.145 45.6881L166.992 45.4228C167.25 44.9603 167.576 44.6237 167.971 44.4129C168.365 44.202 168.811 44.0966 169.307 44.0966C169.681 44.0966 170.001 44.1612 170.266 44.2904C170.538 44.4129 170.749 44.5965 170.899 44.8413C171.055 45.0794 171.14 45.365 171.154 45.6983L170.776 45.6166C171.042 45.1066 171.392 44.7257 171.827 44.4741C172.269 44.2224 172.769 44.0966 173.327 44.0966ZM178.8 49.5544C178.345 49.5544 177.94 49.4626 177.586 49.279C177.233 49.0954 176.957 48.8335 176.76 48.4935C176.563 48.1534 176.464 47.7488 176.464 47.2795C176.464 46.8238 176.539 46.4022 176.689 46.0145C176.838 45.6268 177.049 45.2902 177.321 45.0046C177.593 44.7121 177.913 44.4877 178.28 44.3313C178.654 44.1748 179.059 44.0966 179.494 44.0966C179.963 44.0966 180.361 44.1816 180.688 44.3517C181.014 44.5149 181.266 44.7563 181.442 45.076C181.619 45.3888 181.708 45.7697 181.708 46.2185C181.708 46.8646 181.589 47.4393 181.351 47.9426C181.113 48.4459 180.776 48.8403 180.341 49.126C179.905 49.4116 179.392 49.5544 178.8 49.5544ZM178.953 48.9117C179.402 48.9117 179.8 48.8063 180.147 48.5955C180.5 48.3779 180.776 48.0786 180.973 47.6978C181.177 47.3169 181.279 46.885 181.279 46.4022C181.279 45.8717 181.123 45.4602 180.81 45.1678C180.504 44.8753 180.072 44.7291 179.514 44.7291C179.072 44.7291 178.674 44.8379 178.321 45.0556C177.967 45.2732 177.688 45.5724 177.484 45.9533C177.287 46.3273 177.188 46.7592 177.188 47.2489C177.188 47.7726 177.341 48.1806 177.647 48.4731C177.96 48.7655 178.396 48.9117 178.953 48.9117ZM180.718 49.5034L181.024 47.963L181.33 46.8816L181.432 45.7595L181.759 44.1476H182.483L181.412 49.5034H180.718ZM183.429 49.5034L184.49 44.1476H185.184L184.878 45.7289L184.796 45.4534C185.034 44.9841 185.347 44.6407 185.735 44.4231C186.129 44.2054 186.619 44.0966 187.204 44.0966L187.071 44.8005C187.037 44.8005 187.003 44.8005 186.969 44.8005C186.942 44.7937 186.908 44.7903 186.867 44.7903C186.296 44.7903 185.823 44.9569 185.449 45.2902C185.082 45.6166 184.83 46.1131 184.694 46.7796L184.153 49.5034H183.429ZM187.444 49.5034L188.505 44.1476H189.229L188.168 49.5034H187.444ZM189.178 42.9642C189.035 42.9642 188.916 42.9166 188.821 42.8214C188.733 42.7262 188.688 42.614 188.688 42.4848C188.688 42.3352 188.739 42.2059 188.841 42.0971C188.95 41.9883 189.086 41.9339 189.25 41.9339C189.392 41.9339 189.511 41.9781 189.607 42.0665C189.702 42.1549 189.749 42.2671 189.749 42.4032C189.749 42.5664 189.695 42.7024 189.586 42.8112C189.477 42.9132 189.341 42.9642 189.178 42.9642ZM193.866 44.0966C194.349 44.0966 194.744 44.1918 195.05 44.3823C195.362 44.5659 195.577 44.8345 195.692 45.1882C195.815 45.5418 195.825 45.9635 195.723 46.4532L195.111 49.5034H194.387L194.999 46.443C195.107 45.9125 195.05 45.4976 194.825 45.1984C194.608 44.8991 194.22 44.7495 193.662 44.7495C193.091 44.7495 192.615 44.9059 192.234 45.2188C191.86 45.5316 191.608 46.0009 191.479 46.6266L190.908 49.5034H190.184L191.244 44.1476H191.938L191.632 45.6881L191.479 45.4228C191.738 44.9603 192.071 44.6237 192.479 44.4129C192.894 44.202 193.356 44.0966 193.866 44.0966ZM199.526 49.5544C199.016 49.5544 198.57 49.4626 198.189 49.279C197.815 49.0886 197.526 48.8233 197.322 48.4833C197.125 48.1432 197.027 47.7386 197.027 47.2693C197.027 46.6572 197.156 46.1131 197.414 45.637C197.673 45.161 198.026 44.7869 198.475 44.5149C198.924 44.236 199.431 44.0966 199.995 44.0966C200.471 44.0966 200.883 44.1884 201.23 44.3721C201.576 44.5489 201.845 44.8073 202.035 45.1474C202.233 45.4874 202.331 45.8955 202.331 46.3716C202.331 46.4804 202.324 46.5926 202.311 46.7082C202.297 46.817 202.28 46.9224 202.26 47.0245H197.557L197.649 46.4838H201.923L201.627 46.6878C201.695 46.2593 201.665 45.8989 201.536 45.6064C201.406 45.314 201.206 45.093 200.934 44.9433C200.668 44.7869 200.349 44.7087 199.975 44.7087C199.539 44.7087 199.152 44.8175 198.812 45.0352C198.472 45.246 198.206 45.5418 198.016 45.9227C197.826 46.2967 197.73 46.7354 197.73 47.2387C197.73 47.776 197.883 48.1908 198.189 48.4833C198.502 48.7689 198.968 48.9117 199.587 48.9117C199.948 48.9117 200.281 48.8539 200.587 48.7383C200.893 48.6159 201.145 48.4493 201.342 48.2384L201.668 48.7587C201.417 49.0103 201.1 49.2076 200.719 49.3504C200.345 49.4864 199.948 49.5544 199.526 49.5544ZM207.608 49.5544C207.302 49.5544 207.04 49.4898 206.822 49.3606C206.605 49.2246 206.452 49.0341 206.363 48.7893C206.282 48.5445 206.275 48.252 206.343 47.912L207.322 42.9642H208.047L207.067 47.8814C206.999 48.2146 207.023 48.4731 207.139 48.6567C207.261 48.8403 207.482 48.9321 207.802 48.9321C207.951 48.9321 208.098 48.9117 208.24 48.8709C208.383 48.8233 208.512 48.7519 208.628 48.6567L208.801 49.2076C208.631 49.3368 208.441 49.4286 208.23 49.483C208.019 49.5306 207.812 49.5544 207.608 49.5544ZM206.016 44.7495L206.129 44.1476H209.444L209.322 44.7495H206.016ZM210.049 49.5034L211.11 44.1476H211.803L211.497 45.7289L211.416 45.4534C211.654 44.9841 211.966 44.6407 212.354 44.4231C212.749 44.2054 213.238 44.0966 213.823 44.0966L213.691 44.8005C213.657 44.8005 213.623 44.8005 213.589 44.8005C213.561 44.7937 213.527 44.7903 213.486 44.7903C212.915 44.7903 212.443 44.9569 212.068 45.2902C211.701 45.6166 211.45 46.1131 211.314 46.7796L210.773 49.5034H210.049ZM216.299 49.5544C215.843 49.5544 215.438 49.4626 215.085 49.279C214.731 49.0954 214.456 48.8335 214.258 48.4935C214.061 48.1534 213.963 47.7488 213.963 47.2795C213.963 46.8238 214.037 46.4022 214.187 46.0145C214.337 45.6268 214.547 45.2902 214.82 45.0046C215.092 44.7121 215.411 44.4877 215.778 44.3313C216.153 44.1748 216.557 44.0966 216.992 44.0966C217.462 44.0966 217.86 44.1816 218.186 44.3517C218.512 44.5149 218.764 44.7563 218.941 45.076C219.118 45.3888 219.206 45.7697 219.206 46.2185C219.206 46.8646 219.087 47.4393 218.849 47.9426C218.611 48.4459 218.274 48.8403 217.839 49.126C217.404 49.4116 216.89 49.5544 216.299 49.5544ZM216.452 48.9117C216.901 48.9117 217.298 48.8063 217.645 48.5955C217.999 48.3779 218.274 48.0786 218.472 47.6978C218.676 47.3169 218.778 46.885 218.778 46.4022C218.778 45.8717 218.621 45.4602 218.308 45.1678C218.002 44.8753 217.571 44.7291 217.013 44.7291C216.571 44.7291 216.173 44.8379 215.819 45.0556C215.466 45.2732 215.187 45.5724 214.983 45.9533C214.786 46.3273 214.687 46.7592 214.687 47.2489C214.687 47.7726 214.84 48.1806 215.146 48.4731C215.459 48.7655 215.894 48.9117 216.452 48.9117ZM218.217 49.5034L218.523 47.963L218.829 46.8816L218.931 45.7595L219.257 44.1476H219.981L218.91 49.5034H218.217ZM224.61 44.0966C225.093 44.0966 225.488 44.1918 225.794 44.3823C226.106 44.5659 226.321 44.8345 226.436 45.1882C226.559 45.5418 226.569 45.9635 226.467 46.4532L225.855 49.5034H225.131L225.743 46.443C225.851 45.9125 225.794 45.4976 225.569 45.1984C225.352 44.8991 224.964 44.7495 224.406 44.7495C223.835 44.7495 223.359 44.9059 222.978 45.2188C222.604 45.5316 222.352 46.0009 222.223 46.6266L221.652 49.5034H220.928L221.988 44.1476H222.682L222.376 45.6881L222.223 45.4228C222.482 44.9603 222.815 44.6237 223.223 44.4129C223.638 44.202 224.1 44.0966 224.61 44.0966ZM229.382 49.5544C228.947 49.5544 228.536 49.4932 228.148 49.3708C227.76 49.2484 227.461 49.092 227.25 48.9015L227.597 48.3302C227.801 48.5139 228.07 48.6601 228.403 48.7689C228.736 48.8709 229.087 48.9219 229.454 48.9219C229.964 48.9219 230.355 48.8369 230.627 48.6669C230.906 48.4969 231.045 48.2622 231.045 47.963C231.045 47.759 230.97 47.6059 230.821 47.5039C230.678 47.3951 230.491 47.3135 230.26 47.2591C230.028 47.1979 229.784 47.1401 229.525 47.0857C229.267 47.0313 229.022 46.9632 228.791 46.8816C228.559 46.7932 228.369 46.6606 228.219 46.4838C228.077 46.3069 228.005 46.0689 228.005 45.7697C228.005 45.4296 228.1 45.1338 228.291 44.8821C228.488 44.6305 228.76 44.4367 229.107 44.3006C229.454 44.1646 229.862 44.0966 230.331 44.0966C230.671 44.0966 231.008 44.1408 231.341 44.2292C231.674 44.3177 231.943 44.4401 232.147 44.5965L231.841 45.178C231.63 45.0148 231.385 44.8991 231.106 44.8311C230.828 44.7563 230.549 44.7189 230.27 44.7189C229.773 44.7189 229.389 44.8107 229.117 44.9944C228.852 45.1712 228.719 45.4058 228.719 45.6983C228.719 45.9023 228.791 46.0587 228.933 46.1675C229.083 46.2763 229.274 46.3614 229.505 46.4226C229.736 46.4838 229.981 46.5416 230.239 46.596C230.505 46.6436 230.749 46.7116 230.974 46.8C231.205 46.8884 231.392 47.0176 231.535 47.1877C231.684 47.3509 231.759 47.5821 231.759 47.8814C231.759 48.235 231.661 48.5377 231.463 48.7893C231.266 49.0341 230.987 49.2246 230.627 49.3606C230.273 49.4898 229.858 49.5544 229.382 49.5544ZM235.782 49.5544C235.319 49.5544 234.921 49.4728 234.588 49.3096C234.262 49.1396 234.01 48.8981 233.833 48.5853C233.663 48.2656 233.575 47.8814 233.568 47.4325C233.568 46.7728 233.687 46.1947 233.925 45.6983C234.163 45.195 234.5 44.8039 234.935 44.5251C235.37 44.2394 235.884 44.0966 236.475 44.0966C236.938 44.0966 237.342 44.1884 237.689 44.3721C238.043 44.5489 238.318 44.8073 238.516 45.1474C238.72 45.4874 238.822 45.8921 238.822 46.3614C238.822 46.8238 238.747 47.2489 238.597 47.6365C238.448 48.0242 238.233 48.3608 237.954 48.6465C237.682 48.9321 237.363 49.1566 236.996 49.3198C236.628 49.4762 236.224 49.5544 235.782 49.5544ZM232.405 51.4825L233.864 44.1476H234.557L234.251 45.6881L233.955 46.7592L233.843 47.8814L233.129 51.4825H232.405ZM235.771 48.9117C236.22 48.9117 236.618 48.8063 236.965 48.5955C237.312 48.3779 237.584 48.0786 237.781 47.6978C237.985 47.3169 238.087 46.885 238.087 46.4022C238.087 45.8717 237.934 45.4602 237.628 45.1678C237.322 44.8753 236.887 44.7291 236.322 44.7291C235.88 44.7291 235.482 44.8379 235.129 45.0556C234.782 45.2732 234.506 45.5724 234.302 45.9533C234.105 46.3273 234.006 46.7592 234.006 47.2489C234.006 47.7726 234.16 48.1806 234.466 48.4731C234.772 48.7655 235.207 48.9117 235.771 48.9117ZM242.104 49.5544C241.607 49.5544 241.175 49.4626 240.808 49.279C240.448 49.0886 240.166 48.8233 239.961 48.4833C239.764 48.1432 239.666 47.742 239.666 47.2795C239.666 46.6674 239.798 46.1233 240.063 45.6472C240.329 45.1644 240.696 44.7869 241.165 44.5149C241.635 44.236 242.168 44.0966 242.767 44.0966C243.263 44.0966 243.692 44.1884 244.052 44.3721C244.42 44.5557 244.702 44.8175 244.899 45.1576C245.103 45.4976 245.205 45.8989 245.205 46.3614C245.205 46.9734 245.072 47.5209 244.807 48.0038C244.542 48.4799 244.175 48.8573 243.705 49.1362C243.243 49.415 242.709 49.5544 242.104 49.5544ZM242.155 48.9117C242.604 48.9117 243.002 48.8063 243.348 48.5955C243.702 48.3779 243.977 48.0786 244.175 47.6978C244.379 47.3169 244.481 46.885 244.481 46.4022C244.481 45.8717 244.324 45.4602 244.011 45.1678C243.705 44.8753 243.274 44.7291 242.716 44.7291C242.274 44.7291 241.876 44.8379 241.522 45.0556C241.169 45.2732 240.89 45.5724 240.686 45.9533C240.489 46.3273 240.39 46.7592 240.39 47.2489C240.39 47.7726 240.543 48.1806 240.849 48.4731C241.162 48.7655 241.597 48.9117 242.155 48.9117ZM246.113 49.5034L247.173 44.1476H247.867L247.561 45.7289L247.48 45.4534C247.718 44.9841 248.03 44.6407 248.418 44.4231C248.813 44.2054 249.302 44.0966 249.887 44.0966L249.754 44.8005C249.72 44.8005 249.686 44.8005 249.652 44.8005C249.625 44.7937 249.591 44.7903 249.55 44.7903C248.979 44.7903 248.506 44.9569 248.132 45.2902C247.765 45.6166 247.514 46.1131 247.377 46.7796L246.837 49.5034H246.113ZM252.06 49.5544C251.754 49.5544 251.492 49.4898 251.275 49.3606C251.057 49.2246 250.904 49.0341 250.816 48.7893C250.734 48.5445 250.727 48.252 250.795 47.912L251.775 42.9642H252.499L251.519 47.8814C251.451 48.2146 251.475 48.4731 251.591 48.6567C251.713 48.8403 251.934 48.9321 252.254 48.9321C252.404 48.9321 252.55 48.9117 252.693 48.8709C252.835 48.8233 252.965 48.7519 253.08 48.6567L253.254 49.2076C253.084 49.3368 252.893 49.4286 252.682 49.483C252.472 49.5306 252.264 49.5544 252.06 49.5544ZM250.469 44.7495L250.581 44.1476H253.896L253.774 44.7495H250.469Z" fill="#121212"/>
<path d="M50.7982 14.8126C50.6625 14.8407 50.5293 14.8738 50.3936 14.9197C42.6088 17.5262 35.1749 20.732 27.933 24.6341L42.2119 0L50.7982 14.8126Z" fill="#0A3A6B"/>
<path d="M71.4534 50.4465H12.9653L16.9549 43.563C25.3415 41.8594 33.1365 41.0024 40.2503 41.0024C49.4691 41.0024 57.7994 42.4434 65.0079 45.2794C65.4074 45.4376 65.8299 45.5141 66.2525 45.5141C66.9106 45.5141 67.5636 45.3228 68.127 44.9479C68.1602 44.9249 68.1935 44.902 68.2294 44.8816L71.4534 50.4465Z" fill="#0A3A6B"/>
<path d="M0 44.3892C26.1865 36.5289 48.6061 35.2027 66.2524 42.1525C72.0168 38.3117 76.219 32.4917 78.2292 23.8867C52.7443 25.3302 26.6603 32.2188 0 44.3892Z" fill="#ED1C24"/>
<path d="M17.4056 34.8843C30.2018 29.6407 43.144 25.833 56.3346 24.4456L51.4691 18.1079C38.8291 22.339 27.6205 28.085 17.4056 34.8843Z" fill="#ED1C24"/>
</svg>
